<?xml version="1.0" encoding="UTF-8" standalone="no"?>
<svg
   version="1.0"
   width="965pt"
   height="413.00003pt"
   viewBox="0 0 965 413.00003"
   preserveAspectRatio="xMidYMid"
   id="svg2058"
   sodipodi:docname="nes.svg"
   xmlns:inkscape="http://www.inkscape.org/namespaces/inkscape"
   xmlns:sodipodi="http://sodipodi.sourceforge.net/DTD/sodipodi-0.dtd"
   xmlns="http://www.w3.org/2000/svg"
   xmlns:svg="http://www.w3.org/2000/svg">
  <defs
     id="defs2062" />
  <sodipodi:namedview
     id="namedview2060"
     pagecolor="#ffffff"
     bordercolor="#000000"
     borderopacity="0.25"
     inkscape:showpageshadow="2"
     inkscape:pageopacity="0.0"
     inkscape:pagecheckerboard="0"
     inkscape:deskcolor="#d1d1d1"
     inkscape:document-units="pt"
     showgrid="false" />
  <g
     transform="matrix(0.10469899,0,0,-0.15547428,-19.771453,539.01652)"
     fill="#000000"
     stroke="none"
     id="g2056">
    <path
       d="m 370,2375 v -335 h 111 110 l -3,235 c -2,129 -2,235 -1,235 0,0 27,-42 59,-92 32,-51 72,-114 89,-140 16,-26 57,-90 90,-142 l 60,-95 108,-1 h 107 v 335 335 H 995 890 l -2,-227 -3,-226 -93,142 c -51,79 -115,181 -143,227 l -51,84 H 484 370 Z"
       id="path2000" />
    <path
       d="m 1220,2645 v -65 h 100 100 v 65 65 h -100 -100 z"
       id="path2002" />
    <path
       d="m 4240,2590 c 0,-66 -2,-120 -4,-120 -2,0 -21,7 -42,16 -136,57 -292,-25 -325,-170 -10,-45 -9,-61 5,-104 38,-115 119,-181 228,-187 34,-2 73,2 87,7 14,6 77,10 139,9 l 112,-2 v 335 336 h -100 -100 z m -29,-179 c 23,-18 24,-25 24,-149 0,-72 -3,-134 -7,-138 -4,-4 -29,-9 -55,-11 -78,-7 -84,3 -85,137 -1,63 2,124 6,136 13,42 79,56 117,25 z"
       id="path2004" />
    <path
       d="m 2240,2600 v -50 h -56 c -54,0 -55,0 -52,-27 3,-26 7,-28 56,-31 l 52,-3 v -225 -224 h 105 105 v 224 225 l 53,3 c 48,3 52,5 55,31 3,27 2,27 -52,27 h -56 v 50 50 h -105 -105 z"
       id="path2006" />
    <path
       d="m 1829,2496 c -19,-7 -46,-20 -60,-29 -31,-22 -39,-21 -39,3 0,19 -7,20 -100,20 h -100 v -225 -225 h 100 100 v 158 c 0,152 1,159 23,180 13,12 37,24 53,28 35,7 104,-18 104,-38 1,-7 1,-84 0,-170 l -1,-158 h 106 105 v 170 170 l -36,39 c -69,78 -169,108 -255,77 z"
       id="path2008" />
    <path
       d="m 2778,2499 c -70,-10 -123,-36 -164,-81 -56,-61 -68,-88 -68,-159 -1,-56 3,-73 29,-114 31,-49 117,-118 158,-125 37,-6 180,-5 208,2 35,8 65,26 106,62 31,28 73,85 73,100 0,3 -45,6 -100,6 h -100 v -34 c 0,-53 -28,-79 -85,-79 -64,0 -75,16 -75,110 v 73 h 185 185 v 23 c -1,60 -68,150 -139,186 -28,15 -152,46 -155,40 -1,-1 -27,-5 -58,-10 z m 97,-45 c 20,-8 45,-56 45,-89 0,-25 -1,-25 -80,-25 h -80 v 35 c 0,61 58,101 115,79 z"
       id="path2010" />
    <path
       d="m 4738,2497 c -172,-39 -265,-198 -194,-333 26,-51 59,-94 71,-94 4,0 20,-9 36,-21 35,-25 55,-30 142,-36 139,-11 246,46 296,157 86,189 -117,378 -351,327 z m 127,-56 c 15,-17 17,-41 17,-181 0,-102 -4,-166 -11,-173 -15,-15 -97,-13 -116,3 -13,11 -16,37 -15,169 2,143 3,158 23,179 26,28 77,29 102,3 z"
       id="path2012" />
    <path
       d="m 1220,2265 v -225 h 100 100 v 225 225 h -100 -100 z"
       id="path2014" />
    <path
       d="m 3485,2469 c -22,-12 -44,-25 -49,-30 -16,-15 -26,-10 -26,11 0,19 -7,20 -100,20 h -100 l 2,-222 3,-223 97,-3 98,-3 2,167 c 3,165 3,167 28,185 42,31 81,33 120,7 l 35,-24 5,-164 5,-165 98,-3 97,-3 v 167 c 0,196 -5,211 -98,269 -48,30 -65,35 -117,35 -42,0 -72,-6 -100,-21 z"
       id="path2016" />
    <path
       d="m 383,1784 c -10,-27 3,-288 15,-311 25,-46 58,-53 242,-53 h 170 v 40 40 H 652 c -167,0 -182,4 -182,47 v 23 h 170 170 v 40 40 H 640 470 v 30 30 h 170 170 v 45 45 H 600 c -181,0 -211,-2 -217,-16 z"
       id="path2018" />
    <path
       d="m 860,1611 v -191 h 40 40 v 145 146 l 128,-3 127,-3 3,-142 3,-143 h 39 40 v 155 155 l -29,32 -29,33 -181,3 -181,4 z"
       id="path2020" />
    <path
       d="m 1330,1755 v -45 h 85 85 v -145 -145 h 40 40 v 145 144 l 88,3 87,3 v 40 40 l -212,3 -213,2 z"
       id="path2022" />
    <path
       d="m 1807,1794 c -4,-4 -7,-67 -7,-141 0,-226 8,-233 260,-233 h 170 v 40 40 h -158 c -167,0 -182,4 -182,47 v 23 h 170 170 v 40 40 l -172,2 -173,3 v 25 25 l 170,5 170,5 v 40 40 l -206,3 c -113,1 -208,-1 -212,-4 z"
       id="path2024" />
    <path
       d="m 2270,1610 v -190 h 40 39 l 3,73 3,72 108,3 c 138,3 145,0 149,-81 l 3,-62 44,-3 44,-3 -7,83 c -9,108 -9,116 -1,163 9,55 -18,106 -65,122 -21,7 -99,12 -197,12 l -163,1 z m 345,75 v -30 l -132,-3 -133,-3 v 29 c 0,16 3,32 7,36 4,3 63,5 132,4 l 126,-3 z"
       id="path2026" />
    <path
       d="m 2744,1786 c -3,-8 -4,-27 -2,-43 l 3,-28 88,-3 87,-3 v -144 -145 h 40 40 v 145 145 h 85 85 v 45 45 h -210 c -172,0 -212,-3 -216,-14 z"
       id="path2028" />
    <path
       d="m 3293,1794 c -12,-3 -33,-17 -47,-30 -30,-31 -38,-86 -34,-234 l 3,-105 43,-3 42,-3 v 50 51 h 130 130 v -50 -50 h 40 40 v 144 c 0,80 -4,156 -10,170 -19,50 -52,61 -190,63 -69,0 -135,-1 -147,-3 z m 251,-90 c 9,-9 16,-32 16,-55 v -39 h -130 -130 v 45 c 0,58 12,64 132,65 75,0 100,-4 112,-16 z"
       id="path2030" />
    <path
       d="m 3690,1610 v -190 h 40 40 v 190 190 h -40 -40 z"
       id="path2032" />
    <path
       d="m 3820,1795 c 0,-3 -1,-87 -1,-187 v -183 l 40,-3 41,-3 v 145 146 h 124 c 104,0 125,-3 130,-16 3,-9 6,-74 6,-145 v -129 h 40 40 v 154 c 0,174 -8,196 -78,216 -37,10 -342,15 -342,5 z"
       id="path2034" />
    <path
       d="m 4290,1610 v -190 h 40 40 v 145 145 h 55 55 v -146 -145 l 43,3 42,3 3,143 3,142 h 44 c 61,0 66,-14 64,-163 l -1,-122 41,-3 42,-3 -3,159 c -4,224 -2,222 -290,222 h -178 z"
       id="path2036" />
    <path
       d="m 4810,1644 v -156 l 34,-34 34,-34 h 176 176 v 40 40 h -158 c -167,0 -182,4 -182,47 v 23 h 170 170 v 40 40 h -170 -170 v 30 30 h 170 170 v 45 45 h -210 -210 z"
       id="path2038" />
    <path
       d="m 5274,1787 c -2,-7 -3,-91 -2,-187 l 3,-175 43,-3 42,-3 v 145 146 h 118 c 78,0 122,-4 130,-12 8,-8 12,-55 12,-145 v -133 h 41 41 l -4,159 c -3,178 -8,192 -77,211 -56,15 -340,13 -347,-3 z"
       id="path2040" />
    <path
       d="m 5750,1755 v -45 h 85 85 v -145 -145 h 40 40 v 145 144 l 87,3 c 93,3 101,9 86,66 -5,22 -6,22 -214,22 h -209 z"
       id="path2042" />
    <path
       d="m 6463,1789 c -55,-16 -85,-87 -64,-151 18,-55 40,-62 196,-68 l 140,-5 v -30 -30 l -172,-3 -173,-2 v -41 -40 l 184,3 c 178,3 185,4 210,27 47,44 43,137 -8,175 -24,18 -46,22 -164,26 l -137,5 v 25 25 l 170,5 170,5 v 40 40 l -160,2 c -88,1 -175,-3 -192,-8 z"
       id="path2044" />
    <path
       d="m 6870,1716 c 0,-74 3,-86 24,-109 25,-27 46,-35 106,-39 l 35,-3 3,-72 3,-73 h 39 40 v 75 75 h 39 c 100,0 131,37 131,155 v 75 h -40 -40 v -63 c 0,-36 -5,-68 -12,-75 -8,-8 -49,-12 -118,-12 -69,0 -110,4 -118,12 -7,7 -12,39 -12,75 v 63 h -40 -40 z"
       id="path2046" />
    <path
       d="m 7415,1792 c -55,-18 -75,-50 -75,-116 0,-33 6,-52 24,-73 24,-28 26,-28 168,-33 l 143,-5 3,-32 3,-33 h -170 -171 v -40 -40 h 171 c 176,0 199,4 231,44 22,26 23,97 3,135 -21,41 -61,51 -201,51 h -124 v 30 30 h 170 170 v 45 45 l -162,-1 c -90,-1 -172,-4 -183,-7 z"
       id="path2048" />
    <path
       d="m 7810,1755 v -45 h 85 85 v -146 -145 l 43,3 42,3 3,142 3,142 82,3 82,3 v 40 40 l -212,3 -213,2 z"
       id="path2050" />
    <path
       d="m 8287,1793 c -4,-3 -7,-63 -7,-132 0,-235 7,-241 258,-241 h 172 v 40 40 h -158 c -167,0 -182,4 -182,47 v 23 h 170 170 v 40 40 h -170 -170 v 30 30 h 170 170 v 45 45 h -208 c -115,0 -212,-3 -215,-7 z"
       id="path2052" />
    <path
       d="m 8757,1793 c -4,-3 -7,-89 -7,-190 v -183 h 45 45 v 145 145 h 55 55 v -145 -145 h 40 40 v 145 145 h 49 c 35,0 51,-4 55,-16 3,-9 6,-74 6,-145 v -129 h 45 45 v 144 c 0,132 -2,146 -23,177 -13,19 -38,39 -57,46 -37,13 -381,18 -393,6 z"
       id="path2054" />
  </g>
  <path
     style="opacity:0.501061;fill:#ff0000;stroke:#000000;stroke-width:0.0871135;stroke-linejoin:round;paint-order:fill markers stroke"
     d="m 261.59679,220.62306 c -4.76187,-4.48442 -10.65876,-13.21089 -12.69073,-18.78029 -2.03826,-5.5866 -1.96875,-21.91037 0.11776,-27.64984 2.31147,-6.35827 7.37955,-14.22197 11.41164,-17.70645 1.95804,-1.6921 6.77198,-4.03546 10.69766,-5.20746 6.93239,-2.06965 7.33283,-2.05135 13.92977,0.63621 8.09594,3.29823 11.07468,5.85831 15.9444,13.70341 3.95042,6.3641 6.14176,12.78484 6.14176,17.99573 v 3.27799 H 287.9697 268.79037 v 10.27233 c 0,10.36915 0.98769,16.69162 2.88785,18.48579 1.74972,1.65211 8.39498,1.1223 10.9984,-0.87688 2.8955,-2.22348 3.54951,-4.2793 3.54951,-11.15764 0,-5.02163 0.0336,-5.07242 3.35562,-5.07242 1.84559,0 6.34083,0.37471 9.98941,0.8327 6.3425,0.79616 6.5919,0.94895 5.67974,3.47989 -1.99369,5.53185 -8.91155,15.1321 -13.18025,18.29091 -4.05164,2.99818 -5.41206,3.28798 -15.43468,3.28798 -10.66903,0 -11.11011,-0.11178 -15.03918,-3.81196 z m 24.62934,-49.1813 c 0,-14.20102 -8.18834,-20.54816 -14.47168,-11.21763 -2.40698,3.57431 -2.96408,5.39914 -2.96408,9.70931 v 5.30776 h 8.71788 8.71788 z"
     id="path2319" />
  <path
     style="opacity:0.501061;fill:#ff0000;stroke:#000000;stroke-width:0.0871135;stroke-linejoin:round;paint-order:fill markers stroke"
     d="m 320.12381,223.52438 c -2.03448,-0.4661 -2.34044,-1.25113 -2.82573,-7.24984 -0.29933,-3.69992 -0.54763,-18.81522 -0.5518,-33.58954 l -0.007,-26.86241 h 9.61126 c 9.44983,0 9.62515,0.0543 10.43989,3.23643 0.45573,1.78004 1.00841,3.23645 1.22816,3.23645 0.21975,0 2.28906,-1.74071 4.59847,-3.86822 8.5489,-7.87558 17.82392,-7.51629 26.32248,1.01965 7.73639,7.77045 8.29695,10.35661 8.68465,40.06757 l 0.32519,24.92055 h -6.07331 c -3.34031,0 -7.89342,-0.37048 -10.11802,-0.82325 l -4.04472,-0.82327 v -15.81088 c 0,-8.69599 -0.25017,-20.20579 -0.55595,-25.57734 -0.54812,-9.62879 -0.60201,-9.80487 -3.8238,-12.49377 -4.25427,-3.5506 -8.56721,-3.46984 -12.27325,0.22976 -2.65913,2.65452 -3.01946,3.74739 -3.52146,10.68024 -0.30757,4.24774 -0.6018,16.0246 -0.65385,26.17082 l -0.0947,18.44769 -7.19225,-0.19398 c -3.95573,-0.10666 -8.21893,-0.42917 -9.47377,-0.71666 z"
     id="path2321" />
  <path
     style="opacity:0.501061;fill:#ff0000;stroke:#000000;stroke-width:0.0871135;stroke-linejoin:round;paint-order:fill markers stroke"
     d="m 400.86625,220.18703 c -5.85768,-4.20211 -9.70916,-10.25106 -12.91552,-20.28449 -4.37574,-13.69271 -2.83799,-26.81264 4.45861,-38.04042 6.87309,-10.57611 17.10842,-14.00185 26.2766,-8.79472 2.60858,1.48156 4.9624,2.36856 5.23074,1.9711 0.26831,-0.39745 0.62354,-8.8307 0.78939,-18.7406 l 0.30155,-18.01796 h 9.94196 9.94196 v 51.71575 51.71577 l -9.37172,-0.25124 c -5.15445,-0.13821 -14.07938,0.2224 -19.83318,0.80127 -10.02309,1.00842 -10.64409,0.92147 -14.82039,-2.07446 z m 22.37242,-11.58336 c 0.81797,-1.91376 0.96289,-36.47028 0.17135,-40.85811 -1.18985,-6.59595 -9.05575,-8.81603 -13.0698,-3.68884 l -2.3924,3.05583 0.0286,18.8716 c 0.024,15.81243 0.27829,19.43746 1.56877,22.36216 1.48433,3.36398 1.74773,3.46174 7.2652,2.69664 3.14876,-0.43662 6.04148,-1.53429 6.42827,-2.43928 z"
     id="path2323" />
  <path
     style="opacity:0.501061;fill:#ff0000;stroke:#000000;stroke-width:0.0871135;stroke-linejoin:round;paint-order:fill markers stroke"
     d="m 475.82685,224.53337 c -11.36934,-2.69418 -21.56567,-19.80685 -21.65646,-36.34643 -0.0746,-13.57672 6.14824,-26.69627 15.87401,-33.46739 4.34603,-3.0257 5.99801,-3.42798 14.0776,-3.42798 8.03861,0 9.74275,0.41024 13.98839,3.36734 9.76353,6.80035 15.47681,17.58814 16.27988,30.73965 0.39102,6.40337 0.0884,8.80625 -1.96502,15.60074 -2.91163,9.63441 -8.99712,18.33521 -15.01353,21.46583 -4.85851,2.5281 -15.38709,3.53693 -21.58487,2.06824 z m 14.27493,-9.02035 c 1.40394,-1.32093 2.48789,-35.27188 1.50071,-47.00474 -0.77217,-9.17758 -1.90486,-11.39516 -6.26384,-12.26336 -2.90445,-0.57849 -3.96199,-0.13262 -6.07193,2.56026 l -2.55492,3.26075 -0.27026,24.634 c -0.25705,23.43032 -0.1825,24.7643 1.52563,27.30081 1.36193,2.02242 2.90184,2.66205 6.37278,2.64701 2.51728,-0.011 5.11011,-0.52153 5.76183,-1.13473 z"
     id="path2325" />
  <path
     style="opacity:0.501061;fill:#ff0000;stroke:#000000;stroke-width:0.0871135;stroke-linejoin:round;paint-order:fill markers stroke"
     d="m 487.79067,312.09341 -3.66867,-5.55094 v -23.57698 -23.57698 h 21.7947 21.7947 v 6.47288 6.47288 h -17.87164 -17.87167 v 5.17828 5.17831 h 17.87167 17.87164 v 5.82557 5.82558 h -17.87164 -17.87167 v 4.56306 c 0,6.46711 1.7617,7.08811 20.10787,7.08811 h 15.63544 v 5.82558 5.8256 h -18.12604 -18.12603 z"
     id="path2327" />
  <path
     style="opacity:0.501061;fill:#ff0000;stroke:#000000;stroke-width:0.0871135;stroke-linejoin:round;paint-order:fill markers stroke"
     d="m 533.52333,316.78131 c -0.31966,-0.47469 -0.58121,-13.23491 -0.58121,-28.35606 v -27.49302 l 9.21055,-0.93224 c 10.00138,-1.01229 23.53506,0.0255 28.07356,2.15278 4.87996,2.28731 5.66183,6.43509 6.12873,32.5129 l 0.41142,22.97869 h -4.04048 -4.04047 l -0.0133,-20.38954 c -0.007,-11.21425 -0.38344,-21.2588 -0.83575,-22.32122 -0.65381,-1.53571 -3.5105,-2.02904 -13.93526,-2.40661 l -13.11285,-0.47494 v 22.79615 22.79616 h -3.34185 c -1.83804,0 -3.60339,-0.38838 -3.92305,-0.86305 z"
     id="path2329" />
  <path
     style="opacity:0.501061;fill:#ff0000;stroke:#000000;stroke-width:0.0871135;stroke-linejoin:round;paint-order:fill markers stroke"
     d="m 600.06979,294.98931 v -22.65504 h -8.71787 -8.71788 v -6.47288 -6.47288 l 18.96138,0.15314 c 22.31966,0.1803 23.83653,0.50551 24.69858,5.29509 0.97515,5.41791 -0.94456,6.7878 -10.22807,7.2988 l -8.15003,0.44861 v 22.53008 22.53009 h -3.92306 -3.92305 z"
     id="path2331" />
  <path
     style="opacity:0.501061;fill:#ff0000;stroke:#000000;stroke-width:0.0871135;stroke-linejoin:round;paint-order:fill markers stroke"
     d="m 649.76171,311.81876 v -5.82558 h 17.87166 17.87165 v -5.03978 c 0,-6.30663 -0.50187,-6.60441 -11.1866,-6.63741 -12.83816,-0.0396 -19.37014,-1.77003 -21.68453,-5.74449 -4.29006,-7.36713 -3.17371,-19.47691 2.30049,-24.95503 2.80743,-2.80945 3.68087,-2.93338 20.67401,-2.93338 h 17.74272 v 5.82559 5.82559 l -11.98708,0.009 c -6.59288,0.005 -14.63514,0.38057 -17.87165,0.83447 l -5.88457,0.82531 v 4.14111 4.14114 l 13.57294,0.83168 c 15.56486,0.95371 18.58434,2.33612 20.89478,9.56629 2.04696,6.40561 1.30825,15.14423 -1.65178,19.53977 -2.79173,4.14562 -8.48847,5.26023 -27.36727,5.35464 l -13.29477,0.0666 z"
     id="path2333" />
  <path
     style="opacity:0.501061;fill:#ff0000;stroke:#000000;stroke-width:0.0871135;stroke-linejoin:round;paint-order:fill markers stroke"
     d="m 430.07116,288.34949 v -29.29488 l 19.39727,0.57694 c 21.00064,0.62463 22.93599,1.20809 26.28351,7.92376 1.64316,3.29641 1.84265,5.80388 2.13714,26.86242 l 0.32483,23.22663 h -2.64128 c -5.46338,0 -5.39924,0.24768 -5.39924,-20.8517 0,-22.95591 -0.48199,-24.45839 -7.84609,-24.45839 h -4.35894 v 21.86924 c 0,23.90118 0.10408,23.44085 -5.30202,23.44085 h -2.54407 v -22.65505 -22.65504 h -6.53841 -6.53841 v 22.65504 22.65505 h -3.48715 -3.48714 z"
     id="path2337" />
  <path
     style="opacity:0.501061;fill:#ff0000;stroke:#000000;stroke-width:0.0871135;stroke-linejoin:round;paint-order:fill markers stroke"
     d="m 380.96042,316.78131 c -0.31965,-0.47469 -0.58119,-13.27988 -0.58119,-28.45597 v -27.59293 l 2.29433,-0.85508 c 1.26187,-0.47031 9.00989,-0.44908 17.21781,0.0473 16.61627,1.00466 20.10691,2.44189 22.27947,9.17331 0.88411,2.73927 1.36603,10.46427 1.63544,26.21512 l 0.38197,22.33139 h -4.03285 -4.03285 l -0.0133,-20.38953 c -0.007,-11.21426 -0.38491,-21.26339 -0.83903,-22.3314 -0.65954,-1.55114 -3.46339,-2.03088 -13.93526,-2.38426 l -13.10958,-0.44236 v 22.77378 22.77377 h -3.34186 c -1.83801,0 -3.60339,-0.38836 -3.92305,-0.86303 z"
     id="path2339" />
  <path
     style="opacity:0.501061;fill:#ff0000;stroke:#000000;stroke-width:0.0871135;stroke-linejoin:round;paint-order:fill markers stroke"
     d="m 367.30241,288.51643 v -29.12792 h 3.48715 3.48715 v 29.12792 29.12793 h -3.48715 -3.48715 z"
     id="path2341" />
  <path
     style="opacity:0.501061;fill:#ff0000;stroke:#000000;stroke-width:0.0871135;stroke-linejoin:round;paint-order:fill markers stroke"
     d="m 317.50525,314.08427 c -1.49484,-5.69854 -0.55083,-38.76433 1.26749,-44.39603 2.58356,-8.00186 4.79056,-9.0149 19.45928,-8.93208 21.79422,0.12298 21.92121,0.30933 22.69127,33.2913 l 0.55093,23.5969 h -4.0602 -4.06022 v -7.76746 -7.76745 h -13.9486 -13.94861 v 7.76745 7.76746 h -3.50874 c -3.02011,0 -3.63877,-0.49576 -4.4426,-3.56009 z m 35.84855,-30.03794 c 0,-6.5864 -1.46814,-11.29817 -3.81137,-12.23197 -3.56781,-1.42179 -19.24838,-0.76842 -21.47047,0.89463 -1.88571,1.41128 -2.21471,2.63019 -2.44093,9.04294 l -0.26146,7.41178 h 13.99213 13.9921 z"
     id="path2343" />
  <path
     style="opacity:0.501061;fill:#ff0000;stroke:#000000;stroke-width:0.0871135;stroke-linejoin:round;paint-order:fill markers stroke"
     d="m 286.22613,294.98931 v -22.65504 h -9.15377 -9.15377 v -5.6384 -5.63838 l 5.88456,-0.82528 c 3.23651,-0.45391 13.04413,-0.82942 21.7947,-0.83449 l 15.91013,-0.009 v 6.47288 6.47285 h -8.71787 -8.71789 v 22.65506 22.65504 h -3.92304 -3.92305 z"
     id="path2345" />
  <path
     style="opacity:0.501061;fill:#ff0000;stroke:#000000;stroke-width:0.0871135;stroke-linejoin:round;paint-order:fill markers stroke"
     d="m 218.22667,288.31195 v -29.33238 l 17.54887,0.87072 c 25.27179,1.25391 26.0018,2.01089 25.94145,26.89987 -0.0197,8.09953 0.24143,18.36417 0.58017,22.81031 l 0.61591,8.08389 h -3.09256 c -5.39812,0 -5.84912,-0.73255 -5.86387,-9.52418 -0.007,-4.37393 -0.30957,-8.64433 -0.6716,-9.4898 -1.2831,-2.99654 -5.64126,-4.28814 -14.41016,-4.27069 -13.32999,0.0266 -12.80211,-0.48606 -12.80211,12.43176 v 10.85291 h -3.92305 -3.92305 z m 36.61509,-10.64841 c 0,-4.11917 -0.35433,-5.16831 -1.96151,-5.80792 -2.5669,-1.0215 -23.64492,-1.04649 -25.42851,-0.0302 -0.93068,0.53034 -1.37897,2.42418 -1.37897,5.82559 v 5.03979 h 14.38449 14.3845 z"
     id="path2347" />
  <path
     style="opacity:0.501061;fill:#ff0000;stroke:#000000;stroke-width:0.0871135;stroke-linejoin:round;paint-order:fill markers stroke"
     d="m 178.8533,316.42281 c -4.76384,-1.37779 -7.5033,-4.62064 -8.52685,-10.09373 -0.5006,-2.67681 -0.91238,-14.0422 -0.91505,-25.25644 l -0.005,-20.38955 h 21.7947 21.7947 v 5.82559 5.82559 l -11.98709,0.009 c -6.5929,0.005 -14.63514,0.38057 -17.87166,0.83447 l -5.88456,0.82531 v 4.3438 4.34381 h 17.87166 17.87165 v 5.82558 5.82558 h -17.94114 -17.94093 l 0.58669,4.20736 c 0.99274,7.11936 1.83544,7.44382 19.33371,7.44382 h 15.96145 v 5.82557 5.82559 l -15.47424,-0.14894 c -8.51082,-0.0818 -16.91162,-0.56457 -18.6684,-1.07267 z"
     id="path2349" />
  <path
     style="opacity:0.501061;fill:#ff0000;stroke:#000000;stroke-width:0.0871135;stroke-linejoin:round;paint-order:fill markers stroke"
     d="m 138.02218,294.98931 v -22.65504 h -9.15378 -9.15377 v -6.67556 -6.67556 l 13.73065,0.84567 c 7.55187,0.4651 17.35949,0.84758 21.79471,0.84996 l 8.06403,0.005 v 5.82558 5.82559 h -9.15377 -9.15376 v 22.65504 22.65504 h -3.48717 -3.48714 z"
     id="path2351" />
  <path
     style="opacity:0.501061;fill:#ff0000;stroke:#000000;stroke-width:0.0871135;stroke-linejoin:round;paint-order:fill markers stroke"
     d="M 70.8945,288.40033 V 259.1563 l 18.525491,0.86874 18.525499,0.86876 2.82034,4.74931 2.82034,4.74929 0.013,23.62598 0.013,23.62598 h -3.35922 -3.35923 l -0.56382,-9.90464 c -0.3101,-5.44753 -0.5638,-15.26469 -0.5638,-21.81589 V 274.0126 l -7.192274,-0.83142 c -3.95574,-0.45726 -10.232608,-0.8349 -13.948597,-0.83917 l -6.756356,-0.008 v 22.65505 22.65505 h -3.487204 -3.487152 z"
     id="path2353" />
  <path
     style="opacity:0.501061;fill:#ff0000;stroke:#000000;stroke-width:0.0871135;stroke-linejoin:round;paint-order:fill markers stroke"
     d="m 19.459006,170.0629 v -51.78296 h 11.560452 11.560451 l 4.300201,10.68024 c 7.659257,19.02298 25.286209,59.22676 25.967391,59.22676 0.364297,0 0.662359,-15.72908 0.662359,-34.95351 v -34.95349 h 10.897348 10.897348 v 51.78296 51.78296 h -4.663295 c -2.564816,0 -7.601614,-0.36883 -11.19288,-0.81963 l -6.52958,-0.81962 -14.465214,-33.81023 c -7.95587,-18.59563 -15.06804,-34.97534 -15.804823,-36.39938 -1.214498,-2.34735 -1.342196,0.88683 -1.367333,34.62986 l -0.02773,37.219 H 30.356356 19.459006 Z"
     id="path2355" />
  <path
     style="opacity:0.501061;fill:#ff0000;stroke:#000000;stroke-width:0.0871135;stroke-linejoin:round;paint-order:fill markers stroke"
     d="m 108.38139,186.89236 v -34.95348 h 10.02556 10.02556 v 34.95348 34.9535 h -10.02556 -10.02556 z"
     id="path2357" />
  <path
     style="opacity:0.501061;fill:#ff0000;stroke:#000000;stroke-width:0.0871135;stroke-linejoin:round;paint-order:fill markers stroke"
     d="m 108.38139,127.98924 v -9.7093 h 10.02556 10.02556 v 9.7093 9.70931 h -10.02556 -10.02556 z"
     id="path2359" />
  <path
     style="opacity:0.501061;fill:#ff0000;stroke:#000000;stroke-width:0.0871135;stroke-linejoin:round;paint-order:fill markers stroke"
     d="m 140.63754,186.89236 v -34.95348 l 6.75635,0.014 c 8.68199,0.0183 13.29478,1.16854 13.29478,3.31516 0,3.44299 1.8903,3.19844 7.61304,-0.98486 10.64872,-7.78423 20.11083,-4.93336 29.21999,8.80372 l 4.14098,6.24482 v 26.25697 26.25694 h -10.46144 -10.46145 v -26.5053 -26.50552 l -2.39742,-1.7902 c -5.93952,-4.43521 -11.68624,-3.33083 -15.47424,2.97372 -1.58752,2.64219 -1.7704,5.09143 -2.04318,27.36473 l -0.29961,24.46281 h -9.9439 -9.9439 z"
     id="path2361" />
  <path
     style="opacity:0.501061;fill:#ff0000;stroke:#000000;stroke-width:0.0871135;stroke-linejoin:round;paint-order:fill markers stroke"
     d="m 215.61129,187.04334 v -34.80251 l -1.96151,-0.7806 c -1.07884,-0.42931 -3.44531,-0.78853 -5.25881,-0.79827 -2.61263,-0.014 -3.45124,-0.62252 -4.03864,-2.93045 -0.40773,-1.60204 -0.5681,-3.34971 -0.35635,-3.88373 0.21175,-0.53401 2.91181,-0.97094 6.00015,-0.97094 h 5.61516 v -7.76743 -7.76745 h 10.46148 10.46145 v 7.76745 7.76743 h 5.25808 c 3.88932,0 5.38982,0.5098 5.76416,1.95836 0.82746,3.20211 -1.39628,5.80909 -4.95518,5.80909 -6.4491,0 -6.06706,-2.29121 -6.06706,36.38657 v 34.815 h -10.46145 -10.46148 z"
     id="path2363" />
  <path
     style="opacity:0.501061;fill:#ff0000;stroke:#000000;stroke-width:0.0871135;stroke-linejoin:round;paint-order:fill markers stroke"
     d="m 29.920462,316.44059 c -7.848166,-2.33034 -8.66273,-5.48078 -8.951032,-34.61921 l -0.202742,-20.49101 4.35894,-0.85752 c 2.397417,-0.47163 12.303108,-0.90854 22.012646,-0.97091 l 17.653707,-0.11351 v 6.47289 6.47287 H 46.920328 29.048674 v 5.17829 5.1783 h 17.871654 17.871653 v 5.82558 5.82557 H 46.920328 29.048674 l 0.01335,3.56009 c 0.0275,7.332 0.212611,7.40966 18.696888,7.84437 l 17.03307,0.40058 v 5.74865 5.74865 l -15.910131,-0.14878 c -8.750572,-0.082 -17.283196,-0.55659 -18.961388,-1.05488 z"
     id="path2365" />
  <path
     style="opacity:0.501061;fill:#ff0000;stroke:#000000;stroke-width:0.0871135;stroke-linejoin:round;paint-order:fill markers stroke"
     d="m 717.76117,309.3139 c 0,-12.31118 -0.91565,-14.97189 -5.15238,-14.97189 -4.50848,0 -7.49539,-1.76831 -10.13729,-6.00142 -1.97839,-3.16997 -2.14609,-4.43544 -2.14609,-16.19537 v -12.75671 h 3.37516 3.37512 l 0.4084,10.47579 c 0.27543,7.06572 0.80852,10.85195 1.63764,11.63136 1.7155,1.61265 22.33153,1.49015 24.38894,-0.14491 1.45049,-1.15275 1.68628,-2.78189 1.68628,-11.65118 v -10.31104 h 3.92303 3.92305 l -0.0492,10.03294 c -0.0883,17.99582 -2.88353,23.67394 -12.14411,24.66863 l -5.24244,0.56313 v 11.49556 11.49558 h -3.92305 -3.92305 z"
     id="path2367" />
  <path
     style="opacity:0.501061;fill:#ff0000;stroke:#000000;stroke-width:0.0871135;stroke-linejoin:round;paint-order:fill markers stroke"
     d="m 749.14554,311.93384 v -5.94066 h 17.98568 17.98575 l -0.51269,-4.69139 c -0.28197,-2.5803 -0.75721,-5.05617 -1.056,-5.50196 -0.29886,-0.44578 -6.69058,-1.14556 -14.20384,-1.55504 -8.01836,-0.43701 -14.46691,-1.38857 -15.61298,-2.30388 -6.17225,-4.92948 -5.9261,-24.27012 0.37042,-29.10526 1.7944,-1.37791 7.34663,-2.16512 20.11976,-2.85264 l 17.64151,-0.94958 v 6.65041 6.65043 h -17.43577 -17.43574 v 5.17828 5.17831 l 9.3717,0.026 c 14.498,0.0403 20.21158,1.62458 23.10238,6.40607 1.93106,3.19399 2.39743,5.20863 2.39743,10.35687 0,8.13511 -1.38784,12.61851 -4.74664,15.33346 -2.17252,1.75616 -5.91774,2.23676 -20.31728,2.60712 l -17.65369,0.45408 z"
     id="path2369" />
  <path
     style="opacity:0.501061;fill:#ff0000;stroke:#000000;stroke-width:0.0871135;stroke-linejoin:round;paint-order:fill markers stroke"
     d="m 816.2732,295.06375 v -22.72948 h -9.15374 -9.15381 v -6.6762 -6.67615 l 14.52377,0.85058 c 7.98804,0.46783 17.99179,0.85059 22.23061,0.85059 h 7.70683 v 5.82559 5.82559 h -8.71791 -8.71784 l -0.11096,8.09108 c -0.0613,4.45009 -0.35516,14.49922 -0.65379,22.33139 l -0.54292,14.24031 -3.70508,0.3981 -3.70516,0.39807 z"
     id="path2371" />
  <path
     style="opacity:0.501061;fill:#ff0000;stroke:#000000;stroke-width:0.0871135;stroke-linejoin:round;paint-order:fill markers stroke"
     d="m 856.84023,316.18163 c -4.33698,-1.50822 -7.19117,-5.42045 -8.30732,-11.3869 -1.27869,-6.83521 -1.14033,-42.42107 0.16961,-43.62326 0.57473,-0.52744 10.57847,-1.22096 22.23062,-1.54116 l 21.18559,-0.58216 v 6.64304 6.64308 h -17.87164 -17.87165 v 5.17828 5.17831 h 17.87165 17.87164 v 5.82557 5.82558 h -17.87164 -17.87165 v 4.56306 c 0,6.46711 1.7617,7.08811 20.10795,7.08811 h 15.63534 v 5.82558 5.8256 l -15.91011,-0.12998 c -8.75058,-0.0716 -17.46631,-0.67123 -19.36839,-1.33269 z"
     id="path2373" />
  <path
     style="opacity:0.501061;fill:#ff0000;stroke:#000000;stroke-width:0.0871135;stroke-linejoin:round;paint-order:fill markers stroke"
     d="m 896.70674,289.70536 c 0.27194,-15.36644 0.75886,-28.32836 1.08208,-28.80428 0.3232,-0.47589 8.96589,-0.76204 19.20592,-0.63589 20.67631,0.25474 23.13513,1.05021 26.79467,8.66859 1.79806,3.7433 1.9661,5.7274 2.23426,26.37916 l 0.28998,22.33142 h -4.43096 -4.43097 v -20.62073 c 0,-24.25263 -0.13215,-24.68936 -7.47244,-24.68936 h -4.73258 v 22.65504 22.65505 h -3.92299 -3.92307 v -22.65505 -22.65504 h -6.10252 -6.1025 v 22.65504 22.65505 h -4.49168 -4.49174 z"
     id="path2375" />
</svg>
